<svg xmlns="http://www.w3.org/2000/svg" xmlns:xlink="http://www.w3.org/1999/xlink" viewBox="0 0 125.82 108.55">
  <defs>
    <linearGradient id="linear-gradient" x1="63" y1="108.55" x2="63" gradientUnits="userSpaceOnUse">
      <stop offset="0" stop-color="#fff" stop-opacity="0"/>
      <stop offset="1" stop-opacity="0.3"/>
    </linearGradient>
  </defs>
  <title>Asset 8</title>
  <g id="Layer_2" data-name="Layer 2">
    <g id="Layer_1-2" data-name="Layer 1">
      <g>
        <circle cx="63" cy="54.28" r="54.28" fill="#fbb03b"/>
        <circle cx="63" cy="54.28" r="54.28" fill="url(#linear-gradient)"/>
        <path d="M112.43,31.86a54.12,54.12,0,0,0-8.33-13,21.42,21.42,0,0,0-1.27,2.49C96.62,35.68,90.08,49.88,83.64,64.12c-.62,1.38-1.44,2.66-2.85,5.25,0-6.88,0-12.2,0-17.52.07-10.33.24-20.65.24-31,0-3.66-1.68-6.51-5.39-7.52s-6.56.52-8.56,3.6a25.07,25.07,0,0,0-2.35,4.93c-2.68,7.33-5.27,14.7-7.92,22.06-2.72,7.58-5.47,15.15-8.38,23.19-.51-.94-.79-1.21-.79-1.49-.2-7-.14-14-.6-21-.44-6.61-.71-13.36-2.32-19.73-2.18-8.65-8.59-12.65-17.08-11.86A54.31,54.31,0,0,0,10.28,67.19c5,4.15,11.54,5.18,17,2.16,4-2.23,5.4-5.69,4.66-10.09s-4.14-4-7.33-4.2c-6.26-.32-9.89-3.55-9.28-9.75.4-4.06,2.37-8.17,4.42-11.82,1.83-3.26,5-5.64,9.19-4.42S33.83,33.8,34,37.41c.41,8.81.69,17.62,1,26.43.33,10,.54,20,.93,29.94.16,4.06,1.49,7.76,6,8.72,4.92,1,7.23-2.3,8.89-6.23.45-1.08.84-2.18,1.24-3.27,3-8.29,6-16.58,9-24.86,2.25-6.16,4.55-12.3,6.83-18.45l1,.2c0,1.74,0,3.48,0,5.22-.32,11.48-.73,23-1,34.43-.17,8.23,1.64,12,5.74,13,4.39,1,7.31-1.46,10.77-9.1,8.43-18.64,16.91-37.25,25.23-55.93A37.87,37.87,0,0,1,112.43,31.86Z" opacity="0.5"/>
        <path d="M65.8,48.65C63.52,54.8,61.22,60.94,59,67.1q-4.55,12.42-9,24.86c-.4,1.09-.78,2.19-1.23,3.26-1.66,3.94-4,7.28-8.89,6.23-4.51-1-5.83-4.65-6-8.71-.4-10-.61-20-.93-29.94-.29-8.81-.57-17.63-1-26.43-.16-3.61-1-7.16-5-8.34-4.21-1.22-7.36,1.16-9.19,4.41-2.05,3.65-4,7.76-4.43,11.83-.61,6.2,3,9.43,9.29,9.75,3.19.17,6.6-.14,7.33,4.2s-.64,7.86-4.67,10.09c-7.29,4-16.55.85-21.33-7.34-6.6-11.3-4.57-27.91,4.79-39.24,3.92-4.75,8.6-8.29,14.85-9.39,9.5-1.68,16.78,2.24,19.14,11.59,1.6,6.37,1.87,13.12,2.31,19.73.46,7,.41,14,.6,21,0,.28.28.55.79,1.49,2.91-8,5.66-15.62,8.39-23.2,2.64-7.35,5.23-14.72,7.92-22.06A24.44,24.44,0,0,1,65,15.92c2-3.08,4.89-4.6,8.55-3.61s5.39,3.87,5.39,7.52c0,10.33-.16,20.65-.24,31,0,5.32,0,10.64,0,17.53,1.41-2.59,2.22-3.88,2.84-5.25,6.44-14.24,13-28.44,19.2-42.78,2.27-5.25,5.48-8.14,11.41-7.49a46,46,0,0,0,6,0c3.73-.07,7.14.24,7.61,5.08.51,5.13-2.09,9.89-6.54,9.33-7.74-1-9.35,4-11.67,9.2-8.32,18.68-16.8,37.29-25.23,55.93-3.46,7.64-6.38,10.1-10.77,9.1-4.1-.93-5.91-4.75-5.75-13,.23-11.48.65-23,1-34.44,0-1.73,0-3.48,0-5.22Z" fill="#fff"/>
      </g>
    </g>
  </g>
</svg>
